<?xml version="1.0" encoding="utf-8"?>
<!-- Generator: Adobe Illustrator 26.0.0, SVG Export Plug-In . SVG Version: 6.00 Build 0)  -->
<svg version="1.1" id="Warstwa_1" xmlns="http://www.w3.org/2000/svg" xmlns:xlink="http://www.w3.org/1999/xlink" x="0px" y="0px"
	 viewBox="0 0 653 403.76" style="enable-background:new 0 0 653 403.76;" xml:space="preserve">
<style type="text/css">
	.st0{fill:#983A5D;}
</style>
<g>
	<g>
		<path class="st0" d="M242.37,230.33h5.97v18.62h10.77v5.38h-16.75V230.33z"/>
		<path class="st0" d="M305.48,254.33l-0.89-1.99h-7.28l-0.88,1.99h-6.44l10.96-24.24l10.96,24.24H305.48z M303.09,247.84
			l-2.15-4.93l-2.15,4.93H303.09z"/>
		<path class="st0" d="M352.88,230.31c1.82,0,3.37,0.42,4.65,1.27c1.15,0.77,1.97,1.81,2.47,3.11c0.46,1.24,0.56,2.51,0.3,3.82
			c-0.29,1.33-0.92,2.47-1.89,3.41c1.27,0.82,2.15,1.93,2.63,3.34c0.47,1.36,0.52,2.73,0.13,4.11c-0.41,1.45-1.21,2.6-2.4,3.47
			c-1.31,0.98-2.95,1.47-4.9,1.47h-9.98v-24.01H352.88z M349.9,235.71v4.19h2.98c0.51,0,0.92-0.22,1.23-0.66
			c0.26-0.39,0.4-0.87,0.4-1.44c0-0.56-0.13-1.04-0.4-1.42c-0.31-0.44-0.72-0.66-1.23-0.66H349.9z M349.9,244.74v4.19h3.97
			c0.51,0,0.91-0.22,1.21-0.66c0.28-0.39,0.41-0.87,0.41-1.44c0-0.56-0.14-1.04-0.41-1.42c-0.3-0.44-0.7-0.66-1.21-0.66H349.9z"/>
		<path class="st0" d="M405.68,235.96c-0.57-0.4-1.27-0.6-2.1-0.6c-0.82-0.01-1.51,0.18-2.09,0.56c-0.64,0.42-0.96,0.98-0.96,1.67
			s0.64,1.25,1.92,1.67c0.4,0.14,1.05,0.33,1.97,0.55c1.01,0.25,1.76,0.45,2.25,0.59c1.85,0.56,3.25,1.27,4.2,2.14
			c1.28,1.17,1.92,2.72,1.92,4.67c0,2.34-0.99,4.2-2.98,5.58c-1.79,1.24-3.98,1.86-6.57,1.87c-2.58,0-4.77-0.62-6.55-1.85
			c-1.99-1.37-2.98-3.28-2.98-5.73l6.5-0.21c0.03,0.79,0.37,1.42,1.01,1.87c0.57,0.4,1.28,0.6,2.12,0.61c0.83,0,1.53-0.18,2.12-0.55
			c0.64-0.4,0.96-0.93,0.96-1.59c0-0.65-0.63-1.21-1.9-1.69c-0.41-0.15-1.06-0.36-1.97-0.61c-1.04-0.3-1.79-0.52-2.25-0.68
			c-1.87-0.63-3.27-1.37-4.22-2.22c-1.28-1.15-1.92-2.62-1.92-4.42c0-2.34,0.97-4.2,2.91-5.59c1.74-1.26,3.87-1.9,6.39-1.92
			s4.64,0.57,6.37,1.79c1.86,1.3,2.84,3.06,2.91,5.28l-6.12,0.6C406.62,236.99,406.3,236.4,405.68,235.96z"/>
	</g>
	<g>
		<g>
			<g>
				<path d="M236.68,201.97h-25.9v-9.66h26.64c2.02,0,3.71-1.49,3.71-3.5c0-2.23-1.8-3.29-4.14-3.4l-13.69-0.42
					c-8.81-0.21-15.71-5.41-15.71-12.84c0-7.22,6.05-13.69,15.07-13.69h25.37v9.66h-26.11c-1.91,0-3.72,1.59-3.72,3.71
					c0,5.2,11.47,3.71,18.68,3.82c8.49,0.21,14.86,5.94,14.86,12.84C251.75,195.71,245.7,201.97,236.68,201.97z"/>
				<path d="M301.47,158.45v9.66h-8.95l0,20.49c0,1.91,1.7,3.5,3.72,3.5h8.7c2.02,0,3.71-1.59,3.71-3.5v-5.31h10.83v4.35
					c0,8.28-6.37,14.33-15.07,14.33h-7.54c-8.7,0-14.97-6.16-14.97-14.33l0-19.53h-8.92l0-9.66"/>
				<path d="M369.69,201.97h-15.29c-8.7,0-15.29-6.16-15.29-14.22v-15.07c0-8.07,6.58-14.22,15.29-14.22h15.29
					c8.7,0,15.29,6.16,15.29,14.22v15.07C384.98,195.81,378.39,201.97,369.69,201.97z M374.36,171.61c0-1.91-1.59-3.5-3.72-3.5
					h-17.19c-2.02,0-3.72,1.59-3.72,3.5v17.2c0,1.91,1.7,3.5,3.72,3.5h17.19c2.12,0,3.72-1.59,3.72-3.5V171.61z"/>
				<path d="M439.86,176.71v-4.99c0-1.91-1.7-3.5-3.72-3.5h-4.78c-2.65,0-2.87,0.11-4.78,1.8l-7.11,6.48v25.48h-10.62v-43.52h10.62
					v5.84c3.4-3.29,5.2-5.84,10.61-5.84h5.52c8.7-0.11,15.07,5.94,15.07,14.01v4.25H439.86z"/>
				<path d="M149.93,185.41v3.61c0,1.91,1.7,3.5,3.72,3.5h13.48v9.45h-12.74c-8.7,0-15.07-5.94-15.07-14.12v-15.29
					c0-8.17,6.37-14.12,15.07-14.12h14.22c8.7,0,15.07,5.94,15.07,14.12v12.84H149.93z M173.08,171.72c0-1.91-1.59-3.5-3.72-3.5
					h-15.71c-2.02,0-3.72,1.59-3.72,3.5v4.46h23.14V171.72z"/>
			</g>
		</g>
		<path d="M176.17,192.54h5.62c1.05,0,1.9,0.85,1.9,1.9v5.62c0,1.05-0.85,1.9-1.9,1.9h-5.62c-1.05,0-1.9-0.85-1.9-1.9v-5.62
			C174.27,193.4,175.12,192.54,176.17,192.54z"/>
		<path d="M508.76,192.54h5.62c1.05,0,1.9,0.85,1.9,1.9v5.62c0,1.05-0.85,1.9-1.9,1.9h-5.62c-1.05,0-1.9-0.85-1.9-1.9v-5.62
			C506.86,193.4,507.71,192.54,508.76,192.54z"/>
		<path d="M482.53,185.41v3.61c0,1.91,1.7,3.5,3.72,3.5h13.48v9.45h-12.74c-8.7,0-15.07-5.94-15.07-14.12v-15.29
			c0-8.17,6.37-14.12,15.07-14.12h14.22c8.7,0,15.07,5.94,15.07,14.12v12.84H482.53z M505.67,171.72c0-1.91-1.59-3.5-3.72-3.5
			h-15.71c-2.02,0-3.72,1.59-3.72,3.5v4.46h23.14V171.72z"/>
	</g>
</g>
</svg>
