<svg id="Warstwa_1" data-name="Warstwa 1" xmlns="http://www.w3.org/2000/svg" viewBox="0 0 376.97 96.25"><defs><style>.cls-1{fill:#983a5d;}.cls-2{fill:#020202;}</style></defs><path class="cls-1" d="M103.05,71.89h6V90.56h10.77v5.38H103v-24Z" transform="translate(0 0)"/><path class="cls-1" d="M166.16,95.89l-.89-2H158l-.88,2h-6.43l11-24.24,11,24.24Zm-2.39-6.49-2.15-4.93-2.15,4.93Z" transform="translate(0 0)"/><path class="cls-1" d="M213.56,71.87a8.22,8.22,0,0,1,4.65,1.27,6.41,6.41,0,0,1,2.47,3.11,6.91,6.91,0,0,1,.3,3.82,6.58,6.58,0,0,1-1.89,3.41,6.31,6.31,0,0,1,2.63,3.34,6.71,6.71,0,0,1,.13,4.11,6.29,6.29,0,0,1-2.4,3.47,8,8,0,0,1-4.9,1.47h-10v-24h9Zm-3,5.4v4.19h3a1.42,1.42,0,0,0,1.23-.66,2.61,2.61,0,0,0,.4-1.44,2.39,2.39,0,0,0-.4-1.42,1.42,1.42,0,0,0-1.23-.66h-3Zm0,9v4.19h4a1.39,1.39,0,0,0,1.21-.66,2.68,2.68,0,0,0,0-2.86,1.39,1.39,0,0,0-1.21-.66h-4Z" transform="translate(0 0)"/><path class="cls-1" d="M266.36,77.56a3.55,3.55,0,0,0-2.1-.6,3.66,3.66,0,0,0-2.09.56,1.92,1.92,0,0,0-1,1.67c0,.69.64,1.25,1.92,1.67a20.06,20.06,0,0,0,2,.55c1,.22,1.76.45,2.25.59a11,11,0,0,1,4.2,2.14,6,6,0,0,1,1.92,4.67,6.46,6.46,0,0,1-3,5.58,12.5,12.5,0,0,1-13.12,0,6.57,6.57,0,0,1-3-5.73l6.5-.21a2.29,2.29,0,0,0,1,1.87,3.64,3.64,0,0,0,2.12.61,4,4,0,0,0,2.12-.55,1.81,1.81,0,0,0,1-1.59c0-.65-.63-1.21-1.9-1.69-.41-.15-1.06-.36-2-.61s-1.79-.52-2.25-.68a12.14,12.14,0,0,1-4.22-2.22,5.64,5.64,0,0,1-1.92-4.42,6.54,6.54,0,0,1,2.91-5.59,10.78,10.78,0,0,1,6.39-1.92,10.6,10.6,0,0,1,6.37,1.79,6.39,6.39,0,0,1,2.91,5.28l-6.12.6A2.08,2.08,0,0,0,266.36,77.56Z" transform="translate(0 0)"/><path class="cls-2" d="M97.36,43.56H71.46V33.9H98.1a3.58,3.58,0,0,0,3.71-3.45V30.4c0-2.23-1.8-3.29-4.14-3.4L84,26.56c-8.81-.21-15.71-5.41-15.71-12.84C68.27,6.5,74.27,0,83.34,0h25.34V9.69H82.6a3.76,3.76,0,0,0-3.72,3.71c0,5.2,11.47,3.71,18.68,3.82,8.49.21,14.86,5.94,14.86,12.84C112.43,37.27,106.38,43.56,97.36,43.56Z" transform="translate(0 0)"/><path class="cls-2" d="M162.15,0V9.67h-9V30.16a3.65,3.65,0,0,0,3.72,3.5h8.7a3.65,3.65,0,0,0,3.71-3.5V24.85h10.83V29.2c0,8.28-6.37,14.33-15.07,14.33H157.5c-8.7,0-15-6.16-15-14.33V9.67h-8.82V0" transform="translate(0 0)"/><path class="cls-2" d="M230.37,43.56H215.08c-8.7,0-15.29-6.16-15.29-14.22V14.24C199.79,6.17,206.37,0,215.08,0h15.29c8.7,0,15.29,6.16,15.29,14.22V29.31C245.68,37.37,239.07,43.56,230.37,43.56ZM235,13.2a3.58,3.58,0,0,0-3.66-3.5H214.13a3.65,3.65,0,0,0-3.72,3.5V30.4a3.65,3.65,0,0,0,3.72,3.5h17.19A3.6,3.6,0,0,0,235,30.44V13.2Z" transform="translate(0 0)"/><path class="cls-2" d="M300.54,18.27v-5a3.65,3.65,0,0,0-3.72-3.5H292c-2.65,0-2.87.11-4.78,1.8l-7.11,6.48V43.56H269.53V0h10.62V5.86c3.4-3.29,5.2-5.84,10.61-5.84h5.52C305-.09,311.35,6,311.35,14v4.25Z" transform="translate(0 0)"/><path class="cls-2" d="M10.61,27v3.59a3.65,3.65,0,0,0,3.72,3.5H27.81v9.5H15.07C6.37,43.56,0,37.62,0,29.44V14.12C0,6,6.37,0,15.07,0H29.29C38,0,44.36,5.94,44.36,14.12V27H10.61ZM33.76,13.28a3.58,3.58,0,0,0-3.66-3.5H14.33a3.65,3.65,0,0,0-3.72,3.5v4.46H33.75V13.28Z" transform="translate(0 0)"/><path class="cls-2" d="M36.85,34.1h5.62a1.9,1.9,0,0,1,1.9,1.9v5.62a1.9,1.9,0,0,1-1.9,1.9H36.85a1.9,1.9,0,0,1-1.9-1.9V36A1.91,1.91,0,0,1,36.85,34.1Z" transform="translate(0 0)"/><path d="M369.44,34.1h5.62A1.9,1.9,0,0,1,377,36h0v5.62a1.9,1.9,0,0,1-1.9,1.9h-5.62a1.9,1.9,0,0,1-1.9-1.9V36A1.91,1.91,0,0,1,369.44,34.1Z" transform="translate(0 0)"/><path class="cls-2" d="M343.21,27v3.59a3.65,3.65,0,0,0,3.72,3.5h13.48v9.5H347.68c-8.7,0-15.07-5.94-15.07-14.12V14.12C332.61,6,339,0,347.68,0H361.9C370.6,0,377,5.94,377,14.12V27H343.21Zm23.14-13.69a3.58,3.58,0,0,0-3.66-3.5H346.92a3.65,3.65,0,0,0-3.72,3.5v4.46h23.14V13.28Z" transform="translate(0 0)"/></svg>