<?xml version="1.0" encoding="UTF-8"?>
<svg xmlns="http://www.w3.org/2000/svg" xmlns:xlink="http://www.w3.org/1999/xlink" width="714.19pt" height="138.96pt" viewBox="0 0 714.19 138.96" version="1.1">
<defs>
<clipPath id="clip1">
  <path d="M 347 29 L 428 29 L 428 138.960938 L 347 138.960938 Z M 347 29 "/>
</clipPath>
<clipPath id="clip2">
  <path d="M 700 17 L 714.191406 17 L 714.191406 32 L 700 32 Z M 700 17 "/>
</clipPath>
</defs>
<g id="surface1">
<path style=" stroke:none;fill-rule:nonzero;fill:rgb(65.489197%,66.273499%,67.449951%);fill-opacity:1;" d="M 104.3125 26.972656 C 101.394531 22.222656 97.792969 17.929688 93.636719 14.230469 C 117.976563 18.378906 136.558594 39.617188 136.558594 65.105469 C 136.558594 76.382813 132.910156 86.835938 126.742188 95.335938 C 129.015625 89.117188 130.265625 82.414063 130.265625 75.40625 C 130.265625 55.238281 119.941406 37.433594 104.3125 26.972656 M 72.039063 125.691406 C 56.636719 125.691406 42.816406 118.726563 33.589844 107.785156 C 39.730469 110.5 46.445313 112.148438 53.492188 112.496094 C 62.511719 118.5 73.328125 122.011719 84.949219 122.011719 C 87.324219 122.011719 89.667969 121.855469 91.957031 121.570313 C 85.84375 124.226563 79.117188 125.691406 72.039063 125.691406 M 28.441406 100.453125 C 24.1875 93.074219 21.753906 84.519531 21.753906 75.40625 C 21.753906 64.339844 25.347656 54.109375 31.429688 45.792969 C 29.242188 51.824219 28.046875 58.328125 28.046875 65.105469 C 28.046875 82.058594 35.503906 97.296875 47.304688 107.742188 C 40.476563 106.539063 34.09375 104.023438 28.441406 100.453125 M 13.8125 75.40625 C 13.8125 79.96875 14.335938 84.398438 15.328125 88.65625 C 8.269531 79.757813 4.054688 68.503906 4.054688 56.277344 C 4.054688 27.488281 27.484375 4.058594 56.273438 4.058594 C 63.910156 4.058594 71.167969 5.707031 77.710938 8.667969 C 65.886719 10.175781 55.171875 15.328125 46.746094 22.972656 C 27.269531 32.398438 13.8125 52.359375 13.8125 75.40625 M 57.046875 108.496094 C 42.796875 99.300781 33.347656 83.289063 33.347656 65.105469 C 33.347656 53.269531 37.355469 42.347656 44.082031 33.628906 C 52.082031 28.273438 61.695313 25.128906 72.039063 25.128906 C 84.632813 25.128906 96.164063 29.789063 105 37.472656 C 107.261719 43.308594 108.507813 49.660156 108.507813 56.277344 C 108.507813 84.816406 85.488281 108.082031 57.046875 108.496094 M 111.179688 43.894531 C 118.148438 52.519531 122.320313 63.492188 122.320313 75.40625 C 122.320313 89.804688 116.230469 102.816406 106.5 111.976563 C 99.945313 115.003906 92.640625 116.703125 84.949219 116.703125 C 77.351563 116.703125 70.117188 115.054688 63.613281 112.089844 C 91.191406 108.480469 112.554688 84.832031 112.554688 56.277344 C 112.554688 52.015625 112.085938 47.875 111.179688 43.894531 M 95.917969 22.320313 C 88.621094 19.023438 80.539063 17.191406 72.039063 17.191406 C 69.539063 17.191406 67.089844 17.347656 64.675781 17.65625 C 70.902344 14.976563 77.753906 13.5 84.949219 13.5 C 85.371094 13.5 85.789063 13.511719 86.214844 13.519531 C 89.796875 16.035156 93.0625 18.992188 95.917969 22.320313 M 141.847656 65.105469 C 141.847656 33.925781 116.628906 8.523438 85.523438 8.207031 C 76.996094 3.011719 66.980469 -0.00390625 56.273438 -0.00390625 C 25.242188 -0.00390625 0 25.253906 0 56.277344 C 0 72.679688 7.054688 87.453125 18.273438 97.75 C 27.042969 118.800781 47.84375 133.625 72.039063 133.625 C 90.402344 133.625 106.796875 125.082031 117.480469 111.75 C 132.199219 101.46875 141.847656 84.390625 141.847656 65.105469 "/>
<path style=" stroke:none;fill-rule:nonzero;fill:rgb(65.489197%,66.273499%,67.449951%);fill-opacity:1;" d="M 216.242188 91.886719 C 203.265625 91.886719 192.515625 81.484375 191.507813 68.761719 C 191.492188 66.558594 191.628906 64 191.628906 64 C 193.132813 51.617188 203.722656 42.257813 216.242188 42.257813 C 229.945313 42.257813 241.078125 53.386719 241.078125 67.085938 C 241.078125 80.765625 229.945313 91.886719 216.242188 91.886719 M 216.242188 29.953125 C 207.082031 29.953125 198.433594 33.402344 191.628906 39.484375 L 191.628906 10.535156 L 179.175781 10.535156 L 179.097656 67.085938 C 179.097656 87.546875 195.761719 104.203125 216.242188 104.203125 C 236.722656 104.203125 253.394531 87.546875 253.394531 67.085938 C 253.394531 46.621094 236.722656 29.953125 216.242188 29.953125 "/>
<g clip-path="url(#clip1)" clip-rule="nonzero">
<path style=" stroke:none;fill-rule:nonzero;fill:rgb(65.489197%,66.273499%,67.449951%);fill-opacity:1;" d="M 422.632813 105.398438 C 422.632813 121.050781 409.894531 133.800781 394.21875 133.800781 C 378.585938 133.800781 365.851563 121.050781 365.851563 105.398438 C 365.851563 103.316406 366.09375 101.304688 366.535156 99.34375 C 371.894531 102.390625 378.0625 104.203125 384.683594 104.203125 C 397.785156 104.203125 409.257813 97.335938 415.863281 87.046875 C 420.085938 92.007813 422.632813 98.40625 422.632813 105.398438 M 406.042969 79.621094 C 401.722656 86.949219 393.792969 91.886719 384.683594 91.886719 C 379.9375 91.886719 375.515625 90.5 371.71875 88.171875 C 376.921875 81.414063 385.066406 77.015625 394.21875 77.015625 C 398.441406 77.015625 402.4375 77.964844 406.042969 79.621094 M 359.867188 67.085938 C 359.867188 53.386719 371.007813 42.257813 384.683594 42.257813 C 398.355469 42.257813 409.496094 53.386719 409.496094 67.085938 C 409.496094 69.828125 408.972656 72.445313 408.132813 74.917969 C 403.882813 72.976563 399.179688 71.875 394.21875 71.875 C 383.402344 71.875 373.78125 77.058594 367.644531 85.03125 C 362.878906 80.511719 359.867188 74.15625 359.867188 67.085938 M 421.804688 67.085938 C 421.804688 46.621094 405.164063 29.957031 384.683594 29.957031 C 364.214844 29.957031 347.578125 46.621094 347.578125 67.085938 C 347.578125 78.976563 353.238281 89.519531 361.972656 96.316406 C 361.144531 99.207031 360.691406 102.242188 360.691406 105.398438 C 360.691406 123.902344 375.730469 138.960938 394.21875 138.960938 C 412.738281 138.960938 427.804688 123.902344 427.804688 105.398438 C 427.804688 96.429688 424.222656 88.285156 418.464844 82.273438 C 420.554688 77.617188 421.804688 72.5 421.804688 67.085938 "/>
</g>
<path style=" stroke:none;fill-rule:nonzero;fill:rgb(65.489197%,66.273499%,67.449951%);fill-opacity:1;" d="M 555.050781 91.886719 C 542.0625 91.886719 531.1875 81.738281 530.292969 68.761719 L 530.445313 64 C 531.941406 51.617188 542.515625 42.257813 555.050781 42.257813 C 568.722656 42.257813 579.867188 53.386719 579.867188 67.085938 C 579.867188 80.765625 568.722656 91.886719 555.050781 91.886719 M 555.050781 29.953125 C 545.855469 29.953125 537.226563 33.402344 530.445313 39.484375 L 530.445313 10.535156 L 518.011719 10.535156 L 517.910156 67.085938 C 517.910156 87.546875 534.570313 104.203125 555.050781 104.203125 C 575.519531 104.203125 592.175781 87.546875 592.175781 67.085938 C 592.175781 46.621094 575.519531 29.953125 555.050781 29.953125 "/>
<path style=" stroke:none;fill-rule:nonzero;fill:rgb(65.489197%,66.273499%,67.449951%);fill-opacity:1;" d="M 706.332031 62.367188 C 705.808594 69.921875 702.351563 76.828125 696.597656 81.796875 C 690.839844 86.773438 683.535156 89.195313 675.972656 88.648438 C 673.914063 88.503906 671.90625 88.128906 669.976563 87.554688 C 673.386719 82.394531 675.632813 76.359375 676.128906 69.742188 C 676.839844 59.886719 673.65625 50.335938 667.175781 42.847656 C 665.398438 40.800781 663.394531 39.03125 661.277344 37.445313 C 666.703125 33.460938 673.273438 31.539063 680.039063 32.023438 C 695.644531 33.152344 707.441406 46.761719 706.332031 62.367188 M 663.863281 68.914063 C 663.523438 73.667969 661.804688 77.980469 659.214844 81.582031 C 658.277344 80.75 657.382813 79.894531 656.542969 78.925781 C 651.585938 73.175781 649.152344 65.863281 649.710938 58.304688 C 649.992188 54.175781 651.1875 50.242188 653.132813 46.714844 C 660.140625 51.550781 664.519531 59.824219 663.863281 68.914063 M 637.328125 91.886719 C 630.734375 91.425781 624.722656 88.410156 620.359375 83.402344 C 616.011719 78.378906 613.863281 71.96875 614.332031 65.351563 C 615.355469 51.707031 627.265625 41.390625 640.882813 42.363281 C 643.625 42.554688 646.195313 43.273438 648.601563 44.289063 C 646.351563 48.382813 644.890625 52.992188 644.535156 57.953125 C 644.476563 58.765625 644.449219 59.574219 644.449219 60.363281 C 644.449219 70.242188 648.785156 79.246094 655.777344 85.441406 C 650.902344 89.855469 644.378906 92.398438 637.328125 91.886719 M 680.421875 26.878906 C 671.480469 26.246094 663.109375 29.203125 656.6875 34.511719 C 652.125 32.046875 647.078125 30.496094 641.75 30.105469 C 631.886719 29.394531 622.308594 32.59375 614.785156 39.078125 C 607.28125 45.589844 602.75 54.609375 602.054688 64.484375 C 600.617188 84.910156 616.039063 102.703125 636.433594 104.160156 C 648.300781 105.007813 659.214844 100.101563 666.605469 91.878906 C 669.449219 92.890625 672.449219 93.570313 675.601563 93.792969 C 684.527344 94.445313 693.1875 91.5625 699.976563 85.691406 C 706.757813 79.800781 710.839844 71.65625 711.476563 62.730469 C 712.796875 44.289063 698.855469 28.195313 680.421875 26.878906 "/>
<path style=" stroke:none;fill-rule:nonzero;fill:rgb(65.489197%,66.273499%,67.449951%);fill-opacity:1;" d="M 493.894531 70.113281 C 492.359375 82.527344 481.769531 91.886719 469.261719 91.886719 C 455.574219 91.886719 444.445313 80.765625 444.445313 67.085938 C 444.445313 53.386719 455.574219 42.257813 469.261719 42.257813 C 482.238281 42.257813 493.125 52.410156 494.023438 65.367188 Z M 469.261719 29.957031 C 448.769531 29.957031 432.109375 46.621094 432.109375 67.085938 C 432.109375 87.546875 448.769531 104.203125 469.261719 104.203125 C 478.457031 104.203125 487.101563 100.761719 493.894531 94.660156 L 493.894531 102.867188 L 506.316406 102.867188 L 506.386719 67.085938 C 506.386719 46.621094 489.730469 29.957031 469.261719 29.957031 "/>
<path style=" stroke:none;fill-rule:nonzero;fill:rgb(65.489197%,66.273499%,67.449951%);fill-opacity:1;" d="M 324.9375 68.96875 C 323.933594 81.839844 313.089844 91.886719 300.226563 91.886719 C 288.613281 91.886719 278.417969 83.644531 275.988281 72.265625 C 275.960938 72.132813 275.519531 69.113281 275.519531 69.113281 L 275.566406 30.761719 L 263.144531 30.761719 L 263.160156 68.984375 C 264.191406 88.769531 280.464844 104.203125 300.226563 104.203125 C 319.875 104.203125 336.15625 88.867188 337.285156 69.277344 L 337.3125 65.308594 L 337.3125 30.761719 L 324.9375 30.761719 "/>
<path style=" stroke:none;fill-rule:nonzero;fill:rgb(65.489197%,66.273499%,67.449951%);fill-opacity:1;" d="M 706.402344 23.914063 L 707.453125 23.914063 C 708.007813 23.914063 708.40625 23.574219 708.40625 22.996094 C 708.40625 22.421875 708.007813 22.101563 707.453125 22.101563 L 706.402344 22.101563 Z M 704.867188 21.492188 C 704.867188 20.992188 705.136719 20.695313 705.664063 20.695313 L 707.453125 20.695313 C 709.03125 20.695313 710 21.398438 710 22.996094 C 710 24.128906 709.160156 24.769531 708.109375 24.9375 L 709.84375 26.792969 C 710 26.941406 710.042969 27.097656 710.042969 27.242188 C 710.042969 27.640625 709.726563 28.03125 709.289063 28.03125 C 709.089844 28.03125 708.847656 27.957031 708.691406 27.761719 L 706.429688 25.015625 L 706.402344 25.015625 L 706.402344 27.226563 C 706.402344 27.746094 706.074219 28.03125 705.636719 28.03125 C 705.195313 28.03125 704.867188 27.746094 704.867188 27.226563 "/>
<g clip-path="url(#clip2)" clip-rule="nonzero">
<path style=" stroke:none;fill-rule:nonzero;fill:rgb(65.489197%,66.273499%,67.449951%);fill-opacity:1;" d="M 701.738281 24.355469 C 701.738281 21.355469 704.183594 18.890625 707.183594 18.890625 C 710.210938 18.890625 712.65625 21.355469 712.65625 24.355469 C 712.65625 27.367188 710.210938 29.828125 707.183594 29.828125 C 704.183594 29.828125 701.738281 27.367188 701.738281 24.355469 M 700.207031 24.355469 C 700.207031 28.214844 703.347656 31.347656 707.183594 31.347656 C 711.050781 31.347656 714.191406 28.214844 714.191406 24.355469 C 714.191406 20.503906 711.050781 17.371094 707.183594 17.371094 C 703.347656 17.371094 700.207031 20.503906 700.207031 24.355469 "/>
</g>
</g>
</svg>
